{
  "accessors": [
    {
      "bufferView": 2,
      "componentType": 5126,
      "count": 40,
      "max": [
        7.613513469696045,
        3.8617775440216064,
        30.812984466552734
      ],
      "min": [
        -7.613514423370361,
        -3.8617777824401855,
        -30.812984466552734
      ],
      "type": "VEC3"
    },
    {
      "bufferView": 2,
      "byteOffset": 480,
      "componentType": 5126,
      "count": 40,
      "max": [
        1.0,
        1.0,
        0.0
      ],
      "min": [
        -1.0,
        -1.0,
        0.0
      ],
      "type": "VEC3"
    },
    {
      "bufferView": 1,
      "componentType": 5126,
      "count": 40,
      "max": [
        1.0,
        1.0
      ],
      "min": [
        0.0,
        0.0
      ],
      "type": "VEC2"
    },
    {
      "bufferView": 0,
      "componentType": 5125,
      "count": 84,
      "type": "SCALAR"
    },
    {
      "bufferView": 2,
      "byteOffset": 960,
      "componentType": 5126,
      "count": 82,
      "max": [
        7.8093976974487305,
        0.8070510029792786,
        32.6967658996582
      ],
      "min": [
        -7.809391498565674,
        -0.8070518970489502,
        -32.6967658996582
      ],
      "type": "VEC3"
    },
    {
      "bufferView": 2,
      "byteOffset": 1944,
      "componentType": 5126,
      "count": 82,
      "max": [
        1.0,
        1.0,
        1.0
      ],
      "min": [
        -1.0,
        -1.0,
        -1.0
      ],
      "type": "VEC3"
    },
    {
      "bufferView": 1,
      "byteOffset": 320,
      "componentType": 5126,
      "count": 82,
      "max": [
        0.6653738021850586,
        0.9986282587051392
      ],
      "min": [
        0.00012472271919250488,
        0.0013716816902160645
      ],
      "type": "VEC2"
    },
    {
      "bufferView": 1,
      "byteOffset": 976,
      "componentType": 5126,
      "count": 82,
      "max": [
        0.6653738021850586,
        0.9986282587051392
      ],
      "min": [
        0.00012472271919250488,
        0.0013716816902160645
      ],
      "type": "VEC2"
    },
    {
      "bufferView": 1,
      "byteOffset": 1632,
      "componentType": 5126,
      "count": 82,
      "max": [
        0.6653738021850586,
        0.9986282587051392
      ],
      "min": [
        0.00012472271919250488,
        0.0013716816902160645
      ],
      "type": "VEC2"
    },
    {
      "bufferView": 0,
      "byteOffset": 336,
      "componentType": 5125,
      "count": 198,
      "type": "SCALAR"
    },
    {
      "bufferView": 2,
      "byteOffset": 2928,
      "componentType": 5126,
      "count": 400,
      "max": [
        7.672450065612793,
        4.315627098083496,
        30.37579345703125
      ],
      "min": [
        -7.672443866729736,
        -4.315627098083496,
        -30.37579345703125
      ],
      "type": "VEC3"
    },
    {
      "bufferView": 2,
      "byteOffset": 7728,
      "componentType": 5126,
      "count": 400,
      "max": [
        1.0,
        0.3445483148097992,
        1.0
      ],
      "min": [
        -1.0,
        -0.3498604893684387,
        -1.0
      ],
      "type": "VEC3"
    },
    {
      "bufferView": 1,
      "byteOffset": 2288,
      "componentType": 5126,
      "count": 400,
      "max": [
        0.9127811789512634,
        0.9980080723762512
      ],
      "min": [
        0.028940200805664063,
        0.0019921704661101103
      ],
      "type": "VEC2"
    },
    {
      "bufferView": 1,
      "byteOffset": 5488,
      "componentType": 5126,
      "count": 400,
      "max": [
        0.9127811789512634,
        0.9980080723762512
      ],
      "min": [
        0.028940200805664063,
        0.0019921704661101103
      ],
      "type": "VEC2"
    },
    {
      "bufferView": 0,
      "byteOffset": 1128,
      "componentType": 5125,
      "count": 720,
      "type": "SCALAR"
    },
    {
      "bufferView": 2,
      "byteOffset": 12528,
      "componentType": 5126,
      "count": 485,
      "max": [
        6.725397109985352,
        1.1895943880081177,
        32.696739196777344
      ],
      "min": [
        -6.725393295288086,
        -1.18985116481781,
        -32.696739196777344
      ],
      "type": "VEC3"
    },
    {
      "bufferView": 2,
      "byteOffset": 18348,
      "componentType": 5126,
      "count": 485,
      "max": [
        1.0,
        1.0,
        1.0
      ],
      "min": [
        -1.0,
        -1.0,
        -1.0
      ],
      "type": "VEC3"
    },
    {
      "bufferView": 1,
      "byteOffset": 8688,
      "componentType": 5126,
      "count": 485,
      "max": [
        0.6639140248298645,
        0.9986287355422974
      ],
      "min": [
        0.20990091562271118,
        0.0013713240623474121
      ],
      "type": "VEC2"
    },
    {
      "bufferView": 1,
      "byteOffset": 12568,
      "componentType": 5126,
      "count": 485,
      "max": [
        0.6639140248298645,
        0.9986287355422974
      ],
      "min": [
        0.20990091562271118,
        0.0013713240623474121
      ],
      "type": "VEC2"
    },
    {
      "bufferView": 1,
      "byteOffset": 16448,
      "componentType": 5126,
      "count": 485,
      "max": [
        0.6639140248298645,
        0.9986287355422974
      ],
      "min": [
        0.20990091562271118,
        0.0013713240623474121
      ],
      "type": "VEC2"
    },
    {
      "bufferView": 0,
      "byteOffset": 4008,
      "componentType": 5125,
      "count": 1266,
      "type": "SCALAR"
    }
  ],
  "asset": {
    "extras": {
      "author": "Low poly 3d Models (https://sketchfab.com/lowpoly3dmodels)",
      "license": "CC-BY-4.0 (http://creativecommons.org/licenses/by/4.0/)",
      "source": "https://sketchfab.com/3d-models/scifi-bridge-84618ccce2b5433ba96ffac564dc5ebe",
      "title": "Scifi Bridge"
    },
    "generator": "Sketchfab-16.12.0",
    "version": "2.0"
  },
  "bufferViews": [
    {
      "buffer": 0,
      "byteLength": 9072,
      "name": "floatBufferViews",
      "target": 34963
    },
    {
      "buffer": 0,
      "byteLength": 20328,
      "byteOffset": 9072,
      "byteStride": 8,
      "name": "floatBufferViews",
      "target": 34962
    },
    {
      "buffer": 0,
      "byteLength": 24168,
      "byteOffset": 29400,
      "byteStride": 12,
      "name": "floatBufferViews",
      "target": 34962
    }
  ],
  "buffers": [
    {
      "byteLength": 53568,
      "uri": "scene.bin"
    }
  ],
  "extensionsRequired": [
    "KHR_materials_pbrSpecularGlossiness"
  ],
  "extensionsUsed": [
    "KHR_materials_pbrSpecularGlossiness",
    "KHR_materials_emissive_strength"
  ],
  "images": [
    {
      "uri": "textures/bridge_surface_1_diffuse.png"
    },
    {
      "uri": "textures/bridge_surface_1_emissive.jpeg"
    },
    {
      "uri": "textures/bridge_surface_2_diffuse.png"
    }
  ],
  "materials": [
    {
      "alphaMode": "BLEND",
      "doubleSided": true,
      "extensions": {
        "KHR_materials_pbrSpecularGlossiness": {
          "diffuseFactor": [
            1.0,
            0.0,
            0.0,
            0.6140971096292864
          ],
          "glossinessFactor": 0.5775255696017358,
          "specularFactor": [
            0.6628591629993539,
            0.01052374662558478,
            0.01052374662558478
          ]
        }
      },
      "name": "bridge_glass"
    },
    {
      "doubleSided": true,
      "emissiveFactor": [
        1.0,
        1.0,
        1.0
      ],
      "emissiveTexture": {
        "index": 1
      },
      "extensions": {
        "KHR_materials_emissive_strength": {
          "emissiveStrength": 10.0
        },
        "KHR_materials_pbrSpecularGlossiness": {
          "diffuseFactor": [
            1.0,
            1.0,
            1.0,
            1.0
          ],
          "diffuseTexture": {
            "index": 0
          },
          "glossinessFactor": 0.8308566273725787,
          "specularFactor": [
            0.010666699174702246,
            0.010666699174702246,
            0.010666699174702246
          ]
        }
      },
      "name": "bridge_surface_1"
    },
    {
      "doubleSided": true,
      "extensions": {
        "KHR_materials_pbrSpecularGlossiness": {
          "diffuseFactor": [
            1.0,
            1.0,
            1.0,
            1.0
          ],
          "diffuseTexture": {
            "index": 2
          },
          "glossinessFactor": 0.4,
          "specularFactor": [
            0.0,
            0.0,
            0.0
          ]
        }
      },
      "name": "bridge_surface_2"
    }
  ],
  "meshes": [
    {
      "name": "glass1_bridge_glass_0",
      "primitives": [
        {
          "attributes": {
            "NORMAL": 1,
            "POSITION": 0,
            "TEXCOORD_0": 2
          },
          "indices": 3,
          "material": 0,
          "mode": 4
        }
      ]
    },
    {
      "name": "ground_bridge_surface_1_0",
      "primitives": [
        {
          "attributes": {
            "NORMAL": 5,
            "POSITION": 4,
            "TEXCOORD_0": 6,
            "TEXCOORD_1": 7,
            "TEXCOORD_2": 8
          },
          "indices": 9,
          "material": 1,
          "mode": 4
        }
      ]
    },
    {
      "name": "pillars_bridge_surface_2_0",
      "primitives": [
        {
          "attributes": {
            "NORMAL": 11,
            "POSITION": 10,
            "TEXCOORD_0": 12,
            "TEXCOORD_1": 13
          },
          "indices": 14,
          "material": 2,
          "mode": 4
        }
      ]
    },
    {
      "name": "Top_bridge_surface_1_0",
      "primitives": [
        {
          "attributes": {
            "NORMAL": 16,
            "POSITION": 15,
            "TEXCOORD_0": 17,
            "TEXCOORD_1": 18,
            "TEXCOORD_2": 19
          },
          "indices": 20,
          "material": 1,
          "mode": 4
        }
      ]
    }
  ],
  "nodes": [
    {
      "children": [
        1
      ],
      "matrix": [
        1.0,
        0.0,
        0.0,
        0.0,
        0.0,
        2.220446049250313e-16,
        -1.0,
        0.0,
        0.0,
        1.0,
        2.220446049250313e-16,
        0.0,
        0.0,
        0.0,
        0.0,
        1.0
      ],
      "name": "Sketchfab_model"
    },
    {
      "children": [
        2
      ],
      "matrix": [
        0.009999999776482582,
        0.0,
        0.0,
        0.0,
        0.0,
        0.0,
        0.009999999776482582,
        0.0,
        0.0,
        -0.009999999776482582,
        0.0,
        0.0,
        0.0,
        0.0,
        0.0,
        1.0
      ],
      "name": "db9e4aecff2b4195aa69bbe24ed4ec8e.fbx"
    },
    {
      "children": [
        3
      ],
      "name": "RootNode"
    },
    {
      "children": [
        4,
        6,
        8,
        10
      ],
      "matrix": [
        100.0,
        0.0,
        0.0,
        0.0,
        0.0,
        100.0,
        0.0,
        0.0,
        0.0,
        0.0,
        100.0,
        0.0,
        0.0,
        0.0,
        0.0,
        1.0
      ],
      "name": "bridge_for_textures__8_"
    },
    {
      "children": [
        5
      ],
      "matrix": [
        1.0,
        0.0,
        0.0,
        0.0,
        0.0,
        1.0,
        0.0,
        0.0,
        0.0,
        0.0,
        0.9930465817451477,
        0.0,
        -0.008476811461150646,
        0.6790267825126648,
        0.10000000149011612,
        1.0
      ],
      "name": "glass1"
    },
    {
      "mesh": 0,
      "name": "glass1_bridge_glass_0"
    },
    {
      "children": [
        7
      ],
      "matrix": [
        1.0,
        0.0,
        0.0,
        0.0,
        0.0,
        1.0,
        0.0,
        0.0,
        0.0,
        0.0,
        1.0,
        0.0,
        0.0,
        -3.8660080432891846,
        0.0,
        1.0
      ],
      "name": "ground"
    },
    {
      "mesh": 1,
      "name": "ground_bridge_surface_1_0"
    },
    {
      "children": [
        9
      ],
      "matrix": [
        1.0,
        0.0,
        0.0,
        0.0,
        0.0,
        1.0,
        0.0,
        0.0,
        0.0,
        0.0,
        1.0,
        0.0,
        -0.04407501220703125,
        0.25803041458129883,
        -0.23464393615722656,
        1.0
      ],
      "name": "pillars"
    },
    {
      "mesh": 2,
      "name": "pillars_bridge_surface_2_0"
    },
    {
      "children": [
        11
      ],
      "matrix": [
        1.0,
        0.0,
        0.0,
        0.0,
        0.0,
        1.0,
        0.0,
        0.0,
        0.0,
        0.0,
        1.0,
        0.0,
        -0.043761253356933594,
        3.48319149017334,
        0.0,
        1.0
      ],
      "name": "Top"
    },
    {
      "mesh": 3,
      "name": "Top_bridge_surface_1_0"
    }
  ],
  "samplers": [
    {
      "magFilter": 9729,
      "minFilter": 9987,
      "wrapS": 10497,
      "wrapT": 10497
    }
  ],
  "scene": 0,
  "scenes": [
    {
      "name": "Sketchfab_Scene",
      "nodes": [
        0
      ]
    }
  ],
  "textures": [
    {
      "sampler": 0,
      "source": 0
    },
    {
      "sampler": 0,
      "source": 1
    },
    {
      "sampler": 0,
      "source": 2
    }
  ]
}
